# xmcd CD database file
#
# Track frame offsets:
#	150
#	49164
#	82936
#	115008
#	151030
#	164830
#	197754
#	231059
#
# Disc length: 3548 seconds
#
# Revision: 0
# Processed by: cddbd v1.5.2PL0 Copyright (c) Steve Scherf et al.
# Submitted via: CDex 1.70beta2
#
DISCID=5a0dda08
DTITLE=Lise Bourbeau - Eccoute ton corps - T2 - CD1
DYEAR=2008
DGENRE=New Age
TTITLE0=Avoir des croyances et des peurs
TTITLE1=Avoir des attentes
TTITLE2=Avoir de l'argent et des biens
TTITLE3=Avoir des enfants
TTITLE4=Se comparer
TTITLE5=Faire la victime
TTITLE6=Faire plaisir
TTITLE7=Passer à l'action
EXTD=YEAR: 2008
EXTT0=
EXTT1=
EXTT2=
EXTT3=
EXTT4=
EXTT5=
EXTT6=
EXTT7=
PLAYORDER=
